<svg id="f45df77e-4fe2-4028-b06b-ae272b176530" data-name="Layer 1" xmlns="http://www.w3.org/2000/svg" viewBox="0 0 362.3 266.12"><defs><style>.aff00b4f-1ce8-4ad9-bfd6-17d7b4ad3fba{fill:#e6e1d7;}</style></defs><path class="aff00b4f-1ce8-4ad9-bfd6-17d7b4ad3fba" d="M297.38,19.81c3.39.93,7.78-1.51,9.13,1.69s-3.25,4.47-5.29,6.37q-48.72,45.41-97.66,90.59c-2.19,2-4.44,4-6.7,6-1,.84-1.14,3.26-3.26,1.91-1.59-1-2.22-2.26-1.95-4.53a195,195,0,0,1,3.8-20,100.88,100.88,0,0,1,18.13-38.54C234.72,35.33,263.14,21.59,297.38,19.81Z"/><path class="aff00b4f-1ce8-4ad9-bfd6-17d7b4ad3fba" d="M65.06,20.05c48.78.44,92.52,36.29,102.68,84.29,1.16,5.51,1.79,11.13,2.47,16.72.21,1.71.67,3.88-1.53,4.83s-3.41-.7-4.72-2c-9-8.64-17.91-17.4-27.05-25.9q-31.43-29.22-63-58.24c-5.35-4.94-10.68-9.89-16-14.91-1-1-2.91-1.84-2.27-3.53.74-2,2.86-1.19,4.43-1.28S63.39,20.05,65.06,20.05Z"/><path class="aff00b4f-1ce8-4ad9-bfd6-17d7b4ad3fba" d="M73,130.24q-29.47,0-58.95,0c-1.72,0-4,.76-4.8-1.54-.69-2,1.29-2.92,2.43-4,22.7-21.07,49.38-31.59,80.5-29.65,8.08.5,14.83,4.74,20.72,10.12q10.88,9.94,21.52,20.13c1,.93,3,1.57,2.36,3.43-.7,2.1-2.75,1.49-4.32,1.49Q102.72,130.26,73,130.24Z"/><path class="aff00b4f-1ce8-4ad9-bfd6-17d7b4ad3fba" d="M289.16,130.24c-19.64,0-39.29,0-58.93,0-1.51,0-3.53.92-4.45-1.13s1.23-2.89,2.29-3.88c7.78-7.27,15.5-14.61,23.56-21.56a35.46,35.46,0,0,1,23.28-8.83c29.25-.42,54.32,9.61,75.51,29.6,1.24,1.17,3.47,2.22,2.57,4.39s-3.15,1.43-4.9,1.43Q318.63,130.26,289.16,130.24Z"/><path class="aff00b4f-1ce8-4ad9-bfd6-17d7b4ad3fba" d="M310.56,232.69c-.75,3,1.35,6.84-1.6,8.09-2.41,1-4.37-2.53-6.14-4.22-6.59-6.31-12.65-13.15-19.13-19.58q-29.56-29.35-59.28-58.56a22,22,0,0,1-2.74-2.89c-1.31-1.91-1.36-3.68,1.58-3.6,13.44.35,26.95-1.32,40.29,1.07a25.92,25.92,0,0,1,13.15,6.71C297.85,179.56,308.55,204.25,310.56,232.69Z"/><path class="aff00b4f-1ce8-4ad9-bfd6-17d7b4ad3fba" d="M121.55,151.88c5.33,0,10.66,0,16,0,1.26,0,2.85-.49,3.53,1.11.62,1.44-.29,2.52-1.28,3.49-16.71,16.49-33,33.36-50.14,49.47-10.18,9.6-19.84,19.74-29.74,29.64-.94.94-1.86,1.9-2.83,2.82s-2.07,2.5-3.8,1.62c-1.37-.7-1.31-2.24-1.23-3.57.7-13,2.28-25.79,7.34-37.95A115.45,115.45,0,0,1,82.3,163.06c6.45-6.81,14.26-10.86,23.75-11.15C111.21,151.75,116.38,151.88,121.55,151.88Z"/><path class="aff00b4f-1ce8-4ad9-bfd6-17d7b4ad3fba" d="M208,246.33c-7.31-.12-13.35-6.94-13.09-14.78.22-6.65,6.62-12.47,13.7-12.47,7.3,0,13.84,6.67,13.58,13.85A13.84,13.84,0,0,1,208,246.33Z"/><path class="aff00b4f-1ce8-4ad9-bfd6-17d7b4ad3fba" d="M167.81,191.24c0-7.93,6.13-14.19,13.76-14.08,7,.11,13.2,6.45,13.33,13.6s-6.22,13.51-13.78,13.54A13.23,13.23,0,0,1,167.81,191.24Z"/><path class="aff00b4f-1ce8-4ad9-bfd6-17d7b4ad3fba" d="M153.45,219.79c8.16-1.43,14.44,6.78,14.09,13.13-.4,7.31-6.11,13.37-13.35,13.41s-13.5-6.32-13.48-13.71Q140.74,219.83,153.45,219.79Z"/></svg>