<svg id="b5af3f3b-2932-454b-9674-8916a40b8dfd" data-name="Layer 1" xmlns="http://www.w3.org/2000/svg" viewBox="0 0 410.91 610.43"><defs><style>.eeeaff33-b40c-4171-b973-8e12bb3dc59f{fill:#ea7862;}.b915b29b-224a-4c14-8d67-941d5fe6178e{fill:#e6e1d7;}.b9c7f8ee-ce35-461d-b586-97b08663356b{fill:#29575c;}</style></defs><path class="eeeaff33-b40c-4171-b973-8e12bb3dc59f" d="M.62,209.7c5.05,2.88,9.44,5.11,10.94,11.49,5.12,21.87,10.71,43.63,16.51,65.33,2.54,9.49,4.75,19.05,7.15,28.57.82,3.26.45,4.46-3.22,4.45-9.15,0-18.3.3-27.44.58-2.18.06-3.59-.34-4.2-1.88v14.45c.4-.81,1.25-1.13,2.48-1.29,7.08-.91,14.15-.51,21.22-.58.16.4.31.8.47,1.21L.36,349.66v17.22c.55-1.24,1.73-1.69,3.92-1.39q16,2.19,32,4.11c2.95.36,3.63,1.55,2.47,4.26C32.84,387.61,27,401.37,21.26,415.18c-1,2.32-2.21,3.38-4.8,3.27-4.15-.19-8.32-.2-12.47,0C2,418.53.91,418.11.36,417v7.92c.65-1.44,2.05-1.91,4.47-1.78,4.65.26,9.33-.1,14,.12,3.14.16,4.74-1,5.95-3.92,6.3-15.41,12.87-30.69,19.18-46.09.71-1.76,1.15-2.15,3-1.89,12.35,1.65,24.72,3.14,37.1,4.59a5.89,5.89,0,0,1,5.4,4.25q8.64,22.89,17.64,45.63c1.25,3.15.47,5.24-1.59,7.6Q84.88,457.14,64.42,481a9.11,9.11,0,0,1-6.27,3.45q-26.24,3.24-52.41,6.8c-2.78.39-4.57.22-5.38-1.41v8.34c.58-1.26,1.8-1.86,4.1-2.14,19-2.3,37.92-5,56.9-7.4a8.45,8.45,0,0,0,5.74-3.38q19.82-23.15,39.78-46.17c1-1.13,1.91-2.28,3.25-3.9,7.18,12.73,8.5,26.08,10.9,39.13,2.76,15,5.38,30.12,8.11,45.18q7.76,42.79,15.63,85.57c.71,3.86-.06,5.31-4.35,5.29q-67.74-.2-135.48,0c-2.54,0-3.92-.47-4.58-1.85v1.92H410.72V609c-.5,1-1.58,1.37-3.24,1.34-6.81-.1-13.64,0-20.46,0-5.82,0-11.67-.33-17.45.11-4.39.34-5.92-1.36-6.2-5.41s-.92-7.92-1.43-11.87c-.31-2.4.27-3.83,3.13-3.64q21.62,1.46,43.26,2.74a2.51,2.51,0,0,1,2.39,1.25v-14.3c-.59,2.38-2.3,2.3-7,1.84-12.21-1.2-24.48-1.94-36.74-2.38-4.54-.16-6.3-1-6.11-6.08,1.29-34.07,2.22-68.15,3.3-102.23.64-19.78,1.54-39.55,1.91-59.34.14-7.62,2.07-13.34,8.92-17.84,8.6-5.64,16.46-12.41,24.45-18.94,3.62-3,6.1-7.27,10.64-9.37a4.19,4.19,0,0,1,.61,1.16V348.44c-.55,3-2.22,5.26-5.18,7.26-14,9.42-26.93,20.17-40.07,30.68-26.27,21-52.86,41.62-79.27,62.46-2.15,1.7-3.43,1.77-5.28-.52q-39.93-49.62-80-99.1c-6.17-7.64-12.28-15.34-18.59-22.87a10.33,10.33,0,0,1-2.46-7.3c.11-6.83,0-13.66,0-20.49H180c0-7.17.15-14.34-.07-21.5-.11-3.49,1.09-4.49,4.54-4.57,23.63-.57,47.26-1.33,70.89-2.07q45.92-1.46,91.82-3a10.1,10.1,0,0,1,8.34,3.35q26.26,26.75,52.75,53.27a9,9,0,0,1,2.5,4.06V309.2c-.45.3-.9.6-1.36.89-11.48-11.8-22.91-23.65-34.46-35.39q-19.8-20.13-39.8-40c-2.55-2.54-4-5.15-3.64-8.79,1.33-13,.49-26,.85-38.93.09-3.34.38-4.54,4.06-2.7,23.67,11.84,47.43,23.5,71.18,35.21,1.47.72,2.73,1.41,3.17,3V112.31q0,47.24,0,94.47a6.5,6.5,0,0,1-.37,1.11c-10.83-5.36-21.24-10.55-31.69-15.67-25.91-12.71-51.85-25.34-77.74-38.1C293,150.23,285.3,146,277.44,142c-2.18-1.1-3.07-1.79-1.16-4.27,11.12-14.49,21.55-29.55,33.22-43.59,6.92-8.33,8.54-17.43,8.73-27.48.08-4.1-1.63-9.28,1-12s7.6,0,11.52.18c25.39,1.49,50.76,3.25,76.14,4.81,2.47.15,3.65.72,3.79,3.19V0H.36V68.44c.38-2.55,1.83-3.18,4.84-2.37a4.6,4.6,0,0,0,1.44.38c13-.88,18.82,6.9,24,17.58,14.42,29.62,29.8,58.78,44.88,88.09,1.89,3.68,1.39,7.55,1.1,11.26-1.13,14.46-.39,29-.89,43.42Q74,275.94,73.87,325.12c0,3.2-.94,4.25-4.1,3.09-5.78-2.12-11.57-4.26-17.46-6-3.18-1-4.39-3-5.13-5.93-8.6-34.52-17.3-69-25.86-103.54-.73-3-2-5.23-4.67-6.64a3,3,0,0,1-.42-.27c-5.17-3.89-12.79-6-15.3-11.46m318-155q.57-17.23.41-34.47c0-3.74,1.21-4.91,4.9-4.87,13.65.17,27.31.07,41,.07s27.32.11,41-.08c3.53,0,4.53,1,4.48,4.51-.17,13.16-.11,26.32,0,39.48,0,3-.66,4-3.93,3.76-17.9-1.35-35.81-2.45-53.72-3.62q-15.68-1-31.36-2C319.88,42,318.87,42,319,39.36Zm-125.29,319c2.48,2.94,1.34,3.58-1.57,4.43-8.62,2.54-17.17,5.28-25.75,8-1.77.55-3.57,1.32-5-.54-8.62-11.15-17.22-22.32-26.38-34.2,11.56-1.56,21.94-2.92,32.3-4.37,2.88-.41,5.07.22,7,2.64C180.6,342.38,187,350.46,193.67,358.34Zm124.71-183a4.13,4.13,0,0,1,2.54,4.35c-.38,13,.51,26-.78,38.94-.51,5.15.93,10.26,0,15.43-.36,2,1.69,3.12,2.95,4.38q11.26,11.33,22.59,22.57l-.42,1.23c-11.24.38-22.49.79-33.73,1.14-34.28,1.05-68.57,1.92-102.84,3.25-8.32.32-16.64.46-24.95.81-2.79.12-3.86-.84-3.85-3.67q.15-27.5.06-55c0-2.45,1.29-4.09,2.64-5.74q18.13-22.15,36.33-44.25c5.48-6.67,11-13.29,16.44-20,1.54-1.91,2.81-2.69,5.37-1.43Q279.51,156.51,318.38,175.38Zm-46.15-145c4.61.49,9.31.1,14,.1,5.32,0,10.65.09,16,0,3.05-.07,4.68.84,4.58,4.23-.41,14.12-.7,28.24-1,42.37a6.19,6.19,0,0,1-1.48,3.6c-12.84,17.15-25.73,34.25-38.4,51.51-1.92,2.6-3.37,2.91-6.06,1.44-4.22-2.31-8.59-4.4-13-6.32-3-1.29-3.76-2.84-2.92-6.17,5.12-20.45,10-41,14.92-61.45,1.87-7.75,3.77-15.48,5.56-23.25C265.34,32.1,267.33,29.82,272.23,30.34ZM178.75.05c26.16.05,52.31.1,78.47,0,3.8,0,3,1.84,2.42,4.05-5.78,23.69-11.83,47.33-17.16,71.12-2.72,12.13-6.25,24.11-7.82,36.49-.21,1.63-1.28,2.56-2.17,3.75C218.16,102,208.52,85.53,197.66,70c-4.1-5.85-8.07-11.8-11.94-17.8a6.34,6.34,0,0,0-6.15-3.29c-5.16.2-10.33-.08-15.49.1-2.84.1-3.45-.77-2.62-3.42q6.71-21.37,13.22-42.81C175.33.66,176.63.05,178.75.05ZM2.69,53.61c-2.14-.24-2.34-2-2.33-3.76,0-15.49.14-31,0-46.46C.35-.41,2.69.09,5,.09H82c25.15,0,50.3.14,75.44-.12,5.07-.06,5.35,1.38,4,5.58Q154.84,25.7,148.88,46c-1,3.32-3.06,2.94-5.34,2.95-15,0-30,0-45,0C84.88,49,71.51,51.94,58,53.55,48.91,54.62,39.89,56.14,30.8,57,21.23,58,12.08,54.66,2.69,53.61ZM53.36,103C48.25,93,43.24,82.84,38,72.86,36,69.21,36.6,68.2,40.77,67.7c17-2,33.86-4.75,50.85-6.6,7.74-.85,15.63-.3,23.45-.33,10.16,0,20.31.11,30.47-.07,3.28-.06,4.28,1,4.24,4.26-.18,11.82-.07,23.64-.07,35.46h.08c0,12-.09,24,.06,36,0,3.11-1.1,4.33-4.12,5q-31,6.31-61.92,13c-3,.66-4.48.15-5.91-2.74C69.86,135.34,61.57,119.21,53.36,103ZM4.53,360.71c12.15-8.87,23.32-16.63,34-25,4.38-3.43,8.1-4,13.08-1.89,6.28,2.62,12.85,4.52,19.27,6.78,1.54.53,3.48.68,4.15,2.44,3.51,9.22,7.58,18.24,10.47,28.16C58.57,367.78,32.09,365.35,4.53,360.71ZM85,325.94c.3-7,.09-14,.09-21h.14c0-8.47-.66-17,.12-25.39,2.84-30.35,1-60.82,2.71-91.2.49-8.82,1.81-17.92-4.53-25.84-2.67-3.34,1.57-3.14,3.09-3.47,16.57-3.57,33.17-6.95,49.76-10.4,4.72-1,9.39-2.23,14.16-2.89,3.83-.53,4.8-2.38,4.78-6-.12-24.48.05-49-.13-73.44,0-4.23,1-5.15,5.41-5.78,12.34-1.77,19.73,3,25.94,13.68A221.53,221.53,0,0,0,213,111.51c4.21,4.68,7.91,9.83,12.47,14.17,2.54,2.43,2.17,4,.06,6.6-18.22,22.06-36.25,44.28-54.42,66.39a12,12,0,0,0-2.6,8.29c.09,35.47,0,70.94.22,106.41,0,4.63-.55,7-6.13,7.59-24.27,2.77-48.47,6.14-72.68,9.37C86.37,330.81,84.8,329.94,85,325.94Zm76.21,282.79c-3.56,1.55-4.67-.13-5.25-3.42-3.22-18.26-6.35-36.54-10-54.71-2.51-12.62-5.18-25.3-7.13-37.93-3.21-20.82-7.24-41.47-10.82-62.2-1.59-9.22-6.15-17.56-9.39-26.29q-9-24.24-18.65-48.22c-3.84-9.46-7.63-18.94-11.23-28.5-1.46-3.9-1.5-5.76,3.67-6.18,10.93-.9,21.83-2.38,32.66-4.12,3.42-.55,5.15.51,7,3,8.54,11.28,17.35,22.37,25.71,33.78,2.25,3.07,4.35,3.36,7.51,2.32,9.81-3.21,19.67-6.25,29.48-9.46,3.12-1,5.18-.78,7.56,2.19q36.15,45.19,72.76,90c1.69,2.07,1.81,4.13,1.81,6.46v52h0c0,17.67-.1,35.33.09,53,0,3.54-1.29,5-4.48,5.89Q218.3,592.05,164.07,608A24.51,24.51,0,0,0,161.18,608.73Zm125.51,1.6q-43.63-.06-87.26,0l0-1.07q28.7-8.4,57.41-16.8c7.34-2.14,14.72-4.14,22-6.44,2.7-.85,3.93-.27,4.75,2.41,1.85,6,3.88,12,6,18C290.55,609.3,289.71,610.34,286.69,610.33Zm68.55,0c-8.16-.15-16.32-.05-24.48-.05-8,0-16-.13-24,.06-3.24.08-4.81-1.14-5.72-4.17-1.73-5.73-3.66-11.41-5.68-17.05-1.05-2.92-.3-3.83,2.78-3.64,18.25,1.11,36.52,2.12,54.77,3.15,2.45.14,4,.94,4.23,3.78.41,4.63,1.17,9.23,1.87,13.83C359.5,609.32,358.33,610.42,355.24,610.36Zm1.65-49.28c-.13,4.16-.69,8.31-.64,12.45.05,3.38-1.25,4.3-4.46,4.09-15.61-1-31.22-1.9-46.83-2.79-4.16-.24-8.32-.52-12.48-.43-3.56.09-4.53-1.43-4.5-4.79.12-17.49,0-35,0-52.47h0c0-16.83.1-33.66-.07-50.48,0-3.59.88-6,3.83-8.27,21.88-16.86,43.61-33.9,65.4-50.87,1-.79,2-2.36,3.35-1.68s1.27,2.58,1.22,4.07q-.93,28.93-1.89,57.87Q358.39,514.43,356.89,561.08Z"/><path class="b915b29b-224a-4c14-8d67-941d5fe6178e" d="M411,346.08c0-5.17-.14-10.34,0-15.5a8.07,8.07,0,0,0-.27-2.51v20.37A12.68,12.68,0,0,0,411,346.08Z"/><path class="b915b29b-224a-4c14-8d67-941d5fe6178e" d="M410.75,63.35c0-.19,0-.35,0-.52v49.48Q410.74,87.83,410.75,63.35Z"/><path class="b915b29b-224a-4c14-8d67-941d5fe6178e" d="M-.12,501.33q.17,52,0,104a7.44,7.44,0,0,0,.51,3.22V498.21A7.35,7.35,0,0,0-.12,501.33Z"/><path class="b915b29b-224a-4c14-8d67-941d5fe6178e" d="M411,575q0-102.39-.1-204.78c0-1.36.3-2.82-.21-4.24V579.19A18.36,18.36,0,0,0,411,575Z"/><path class="b915b29b-224a-4c14-8d67-941d5fe6178e" d="M-.08,427.9c.23,9.82.07,19.65.07,29.48H0c0,9.66.26,19.33-.1,29a7.31,7.31,0,0,0,.51,3.52v-65A6.81,6.81,0,0,0-.08,427.9Z"/><path class="b915b29b-224a-4c14-8d67-941d5fe6178e" d="M410.85,309.12q0-42.69,0-85.37a4.39,4.39,0,0,0-.18-1.32V309.2Z"/><path class="b915b29b-224a-4c14-8d67-941d5fe6178e" d="M0,316a5.89,5.89,0,0,0,.35,2.29"/><path class="b915b29b-224a-4c14-8d67-941d5fe6178e" d="M0,369.56c.16,7.32.05,14.63.05,21.95H0c0,7.65.11,15.3,0,22.95A5.36,5.36,0,0,0,.36,417V366.88A6.17,6.17,0,0,0,0,369.56Z"/><path class="b915b29b-224a-4c14-8d67-941d5fe6178e" d="M411.07,606.94c-.15-3.83-.08-7.66,0-11.48a4.28,4.28,0,0,0-.33-2V609A4.17,4.17,0,0,0,411.07,606.94Z"/><path class="b915b29b-224a-4c14-8d67-941d5fe6178e" d="M.08,334.08c0,4.88,0,9.77,0,15.78l.28-.2v-17A2.91,2.91,0,0,0,.08,334.08Z"/><path class="b9c7f8ee-ce35-461d-b586-97b08663356b" d="M58.34,594.91A43.8,43.8,0,1,0,14.57,551,43.71,43.71,0,0,0,58.34,594.91ZM58.14,514a37.15,37.15,0,1,1-36.92,37.38A37.24,37.24,0,0,1,58.14,514Z"/><path class="b9c7f8ee-ce35-461d-b586-97b08663356b" d="M58.39,581.36c3.47-10.19,6.55-19.14,9.53-28.12a5.79,5.79,0,0,0,.18-3.39c-3-9.3-6.15-18.56-9.7-29.16-3.6,10.66-6.75,19.9-9.83,29.17a4,4,0,0,0,0,2.39C51.63,561.52,54.79,570.77,58.39,581.36ZM58.3,546.5c3,0,4.35,1.94,4.8,4.62-.41,2.75-1.82,4.43-4.58,4.45-3,0-4.65-1.61-4.59-4.65C54,548.14,55.62,546.53,58.3,546.5Z"/></svg>