<svg id="a45a65a9-a252-4782-a9f4-8ff6e443313c" data-name="Layer 1" xmlns="http://www.w3.org/2000/svg" viewBox="0 0 127.68 139.27"><defs><style>.abad5305-03d0-41e1-a745-675b8f9fb428{fill:#ea7862;}</style></defs><path class="abad5305-03d0-41e1-a745-675b8f9fb428" d="M63.57,63.18H12.64c-6.93,0-7.11-.25-5.62-7.08,8.77-40.22,58.4-58.5,91.46-33.69a58.2,58.2,0,0,1,22.63,35.3c1,4.53-.44,5.55-4.62,5.52C98.85,63.1,81.21,63.18,63.57,63.18Z"/><path class="abad5305-03d0-41e1-a745-675b8f9fb428" d="M64.57,76.2c17.16,0,34.32,0,51.48,0,2.19,0,5.68-1.22,5.6,2.84-.07,3.54-1.45,6.4-6,6.12-3.82-.23-7.66,0-11.49,0q-45.74,0-91.47,0c-2.53,0-5,.25-6.12-2.88-1.43-3.88-.16-6.07,4-6.08C28.58,76.17,46.57,76.2,64.57,76.2Z"/><path class="abad5305-03d0-41e1-a745-675b8f9fb428" d="M64.27,98.2c14.5,0,29-.06,43.49.07,1.86,0,5.15-1.46,5.34,1.7s-1.91,5.92-5.19,7a12.77,12.77,0,0,1-4,.14c-27,0-54-.15-81,.15-5.16,0-6.52-3.28-8.08-6.55-1.21-2.55,1.36-2.47,2.91-2.5,4.83-.1,9.66,0,14.49,0Z"/><path class="abad5305-03d0-41e1-a745-675b8f9fb428" d="M64.05,120.2c6.32,0,12.65,0,19,0,1.27,0,3-.35,3.42,1.29.55,2-1.24,2.61-2.57,3.08a57.55,57.55,0,0,1-40-.06c-1.44-.52-3.06-1.17-2.63-3s2.15-1.24,3.37-1.25C51.06,120.17,57.56,120.2,64.05,120.2Z"/></svg>