<svg id="b0181d9c-5432-4df8-939b-d19b06cdbd93" data-name="Layer 1" xmlns="http://www.w3.org/2000/svg" viewBox="0 0 1075.41 219.76"><defs><style>.b9e04b24-7fe1-4d1e-84f2-deb5619b977b{fill:#e6e1d7;}</style></defs><path class="b9e04b24-7fe1-4d1e-84f2-deb5619b977b" d="M62.22,170.13c9.66,0,19.38.71,29-.15,21.21-1.88,36.54-13.57,45.58-32.18,11.83-24.36,22.18-49.44,32-74.72a17.51,17.51,0,0,0,.63-2.91c.67-3.19,2.76-7,.06-9.47-3-2.83-7-.53-10.4.52-11.42,3.53-20.44,11-29.36,18.53a200.85,200.85,0,0,0-25,25.76c-5.36,6.46-5.4,13-1.81,19.89A122.89,122.89,0,0,0,110,126.85c1.38,2.06,1.77,3.8-.08,5.78-4.54,4.87-9,9.85-13.52,14.7-2,2.19-4.32,2-5.76-.55-6.75-12-13.84-23.92-14.51-38.34-.41-9,1.17-17.39,6.3-24.69C103,54.36,130.49,34.5,165.26,25a57.54,57.54,0,0,1,7.89-1.2c17.27-2.1,28.56,10.41,24.57,27.45-3.34,14.29-8.74,27.92-14.41,41.4-8.05,19.15-15.15,38.73-25,57.08a115.9,115.9,0,0,1-15.63,21.89C128.2,188,109.36,194,88.36,195.24c-21.61,1.29-43.25,1.58-64.89,1.7-6.82,0-8.06-1.91-4.44-7.6s7.83-11.15,11.74-16.74c1-1.47,2.5-1.42,4-1.42H62.22Z"/><path class="b9e04b24-7fe1-4d1e-84f2-deb5619b977b" d="M715.9,200.45c-7.75.49-8.36-.37-5.47-7.6,12.24-30.55,27.15-59.94,39.34-90.51,3.69-9.26,7.62-18.43,11.39-27.65,2-4.78,1-6-4.2-5.51-23.35,2.32-46.58,5.48-69.65,9.75-6.49,1.2-9.43-2.09-7.32-8.45a43.46,43.46,0,0,1,8.33-14.09c1.73-2.07,4-2.71,6.54-3.11,23.68-3.63,47.37-7.14,71.17-9.79,6.47-.72,10.7-3.33,11.91-9.82,1.46-7.89,6.44-11.39,14-12.45,4.6-.63,9.1-1.93,13.79-2,3.61-.08,4.9,1.49,3.84,5-.64,2.07-1.17,4.17-1.87,6.21-1.39,4.07.49,5.28,4.17,4.78q12.36-1.68,24.7-3.49c5.73-.84,6.47-.17,5.51,5.46a24.51,24.51,0,0,1-1,3.85c-7,20.29-5.89,17.55-23.75,19.49-6.45.69-12.9,1.38-19.37,1.89-5.67.46-7.9,4.53-9.46,9-4.74,13.67-10.14,27.08-15.95,40.33-9,20.54-16.47,41.73-26.68,61.77a99.9,99.9,0,0,0-6.56,17.21c-1.3,4.45-3.87,6.67-8.15,7.63A96.17,96.17,0,0,1,715.9,200.45Z"/><path class="b9e04b24-7fe1-4d1e-84f2-deb5619b977b" d="M568.54,196.39c-3.82-.1-7.65.18-11.45-.59-6.38-1.29-8.18-3.21-8.88-9.51-.35-3.17.76-7.59-2.83-8.81s-5.63,3-7.47,5.45c-7.52,10.13-17.48,14.43-29.89,13.65-2.32-.14-4.66,0-7,0-12.16-.11-18.85-6.45-18.76-18.73a55,55,0,0,1,15.26-38c14.18-15.13,31.92-23.59,52.69-25.29,4.57-.37,7.46-1.85,9.4-6.49C566.85,90.73,574,73.4,582.08,56.41c6.27-13.27,17.32-16.35,29.81-18.1,3.66-.52,5,1.46,4,4.81a123.59,123.59,0,0,1-4.26,11.69c-10.66,24.73-22.76,48.79-34.38,73.07-6.17,12.91-8.62,26.84-8.93,41.1-.13,6.15,1.37,7.49,7.52,8.22.49.06,1,.09,1.49.12,11.16.75,11.44,1.21,6.78,11.16C580.37,196.39,580.37,196.39,568.54,196.39Zm-56.77-20.88a18,18,0,0,0,12.7-3.64c10.52-8.57,19.73-18.35,25-31.12,1.86-4.48.72-5.95-4-5.42-11.9,1.33-22.52,5.68-31.15,14.19-5.36,5.29-8.77,11.61-9.26,19.33C504.64,175.5,504.58,175.5,511.77,175.51Z"/><path class="b9e04b24-7fe1-4d1e-84f2-deb5619b977b" d="M920.89,137.46c6.43-4.45,11.54-9,17.45-12.4s11.83-6,18.71-6.28c5.26-.24,8.42,2,10.25,6.89a22.08,22.08,0,0,1-.64,17c-4,9.47-8.45,18.8-12.63,28.22-2.71,6.11-2.2,6.83,4.46,6.88a41.94,41.94,0,0,1,4.49.1c2.72.31,3.72,1.92,3.06,4.57-.08.32-.23.62-.32.94-4,13.55-4,13.55-18.28,13.55-3.84,0-7.67,0-11.5,0-9-.09-13.6-6.73-10.16-15.15,4.09-10,8.54-19.84,12.82-29.76a35.69,35.69,0,0,0,1.46-3.71c.5-1.67,1.76-3.5-.35-4.95s-3.5.17-4.93,1.16a93.05,93.05,0,0,0-16,14.26c-9.34,10.28-17,21.76-24,33.72-1.7,2.93-3.56,4.37-7.08,4.13a132,132,0,0,0-13.49,0c-3.11.1-3.75-.59-2.33-3.65,5.6-12.06,11.92-23.79,16.71-36.22,1.08-2.79,2-5.62,3-8.46.58-1.71,1.43-3.52-.53-5s-3.15.09-4.49.94a73.81,73.81,0,0,0-15.23,12.85c-9.39,10.43-17.75,21.63-23.69,34.42-1.9,4.07-4.72,5.79-9,5.69-2.33-.05-4.66-.09-7-.23-7.52-.44-8.05-1.14-5.43-8.45,7.9-22.11,17.62-43.44,27.78-64.57,1-2.08,2.24-3.66,4.59-4.15,5.38-1.12,10.71-2.45,16.12-3.32,4.3-.7,5.63,1.22,4,5.19-.51,1.23-1.28,2.35-1.74,3.6-.8,2.19-3.63,4.47-1.18,6.71s4.52-.68,6.42-2a99.25,99.25,0,0,1,18.12-10.45,26.87,26.87,0,0,1,9.13-2.35c9.17-.44,13.19,3.58,12.6,12.87C922,132.19,921.44,134.29,920.89,137.46Z"/><path class="b9e04b24-7fe1-4d1e-84f2-deb5619b977b" d="M457.06,197.39a44.63,44.63,0,0,1-14.65-1.51c-6.91-2.14-8.83-5.33-7.17-12.36,1.26-5.37,3.69-10.32,5.92-15.33,2.91-6.53,5.91-13,8.77-19.57.69-1.59,1.91-3.51-.13-5-1.82-1.29-3.49-.11-5,.94-6.53,4.44-12,10.08-17.1,16a185.22,185.22,0,0,0-17.74,24.12,17.5,17.5,0,0,0-2.64,5.85c-.91,5.1-4,6.93-8.78,6.83-4.17-.08-8.33,0-12.5,0-3.92,0-5-2.05-3.68-5.56.83-2.17,1.72-4.32,2.69-6.44,9-19.63,18.49-39.05,26.14-59.28,1.72-4.54,4.46-7,9.62-7,3.45,0,6.92-.84,10.38-1.29,5.05-.66,6.45,1.2,4.35,6-1.14,2.58-2.55,5-3.88,7.54-.8,1.52-1.59,3.09.12,4.46s3.05.21,4.39-.86c7.82-6.24,15.68-12.51,25.3-15.73s17,2.47,17,12.55a29.37,29.37,0,0,1-1.67,9.29,169.39,169.39,0,0,1-8.53,19.66c-1.3,2.69-2.7,5.34-4,8-4.14,8.69-3.93,9,5.56,9.06,7.18,0,7.89,1,5.65,8C471.68,197.39,471.68,197.39,457.06,197.39Z"/><path class="b9e04b24-7fe1-4d1e-84f2-deb5619b977b" d="M360.7,196.39c-6.85-.11-13.66-.4-19.78-4.06-2.43-1.46-4.85-.77-7.19.2-9.54,4-19.47,3.95-29.46,2.85-5.85-.65-8.44-5.1-9.84-10.06-2-7.22-2-14.52,1.43-21.42,12.32-24.67,30.75-41.45,59-45.52a174.86,174.86,0,0,1,22.84-2c5-.06,5.69,1.45,3.92,6.08-3.53,9.28-8.45,15-19.9,15.65-16.59.92-30.17,9.57-41,22.2a31.8,31.8,0,0,0-6.33,11.22c-.87,2.73-.05,4.42,3.12,4.83,11.09,1.43,17.47-2.26,21.38-12.72,1.57-4.2,2.79-8.53,4.38-12.72,1.42-3.73,4-5.91,8.34-5.76,3.3.12,6.63-.48,9.95-.64,4.59-.23,5.75,1.34,4.05,5.69-2.66,6.8-5.71,13.42-6.92,20.76-.73,4.45.59,6.15,4.88,6.14,3.16,0,6.33.17,9.49.23,3.58.07,5,1.76,3.57,5.15-1.57,3.84-3.37,7.59-5,11.41-.85,2-2.34,2.6-4.38,2.51S362.87,196.39,360.7,196.39Z"/><path class="b9e04b24-7fe1-4d1e-84f2-deb5619b977b" d="M263.65,197.26a58.13,58.13,0,0,1-12.27-.91c-8.64-1.73-11.8-6.08-10.84-14.89a55.42,55.42,0,0,1,3.84-13.92c16.08-41.2,32.92-82.08,50.91-122.49,3.41-7.66,5.51-8.8,13.92-8,12.56,1.15,13.09-.09,8.1,12.83C301.9,89.73,284.1,128.58,267,167.74c-.6,1.37-1.14,2.78-1.84,4.1-1.68,3.18-.31,4.84,2.8,5.19,4,.45,8,.54,11.95.76,4.36.25,5.24,1.54,3.81,5.72-.26.78-.61,1.54-.93,2.31C278.34,196.18,276,197.65,263.65,197.26Z"/><path class="b9e04b24-7fe1-4d1e-84f2-deb5619b977b" d="M1017.9,196.94c-4.5,0-9,.05-13.49,0-16.31-.22-25.21-9.5-24.81-25.82.74-29.94,28.31-56.39,58.14-55.72a34.22,34.22,0,0,1,6.9,1c11,2.59,15.53,10.16,13.07,21.26-2.24,10.09-8.92,16.89-16.51,23.05A90.61,90.61,0,0,1,1022,172.2c-1.71.79-3.61,1.45-3.07,3.83s2.65,2.24,4.46,2.27c5.66.12,11.32.2,17,.19,4.05,0,5.26,1.82,4.43,5.72-2,9.48-5.25,12.26-14.93,12.35-4,0-8,0-12,0Zm14.56-63.77a22.52,22.52,0,0,0-8.53,3.06c-9.67,5.46-16.71,13.5-22.35,22.88-.81,1.35-2.17,2.81-.54,4.47s3.36.67,5-.21c7.28-4,14.3-8.44,20.35-14.2a35,35,0,0,0,8.5-11.55C1035.91,135.12,1035.34,133.4,1032.46,133.17Z"/><path class="b9e04b24-7fe1-4d1e-84f2-deb5619b977b" d="M236.14,104.83a33.85,33.85,0,0,1-7.41,10.25c-4.95,5-6.91,10.42-4.63,17.61,2.8,8.83,5.36,17.77,5.23,27.3-.27,19.8-15.27,36.23-34.88,37.25-8.47.44-17,.08-25.46.17-3.4,0-4.53-1.56-3.78-4.7.3-1.29.84-2.52,1.17-3.81,2-7.44,6-11.91,14.46-11.11,3.45.33,7-.42,10.47-.25,12.08.57,16.16-7,18.62-18,.87-3.9-.2-8-1.44-11.79-.9-2.78-2.69-3.29-4.86-1.25a22.34,22.34,0,0,0-4.38,4.76c-3,5.26-7,5.41-12.27,3.72-10.08-3.25-10.43-3.66-3.64-11.71,7.2-8.53,14.52-17,20.51-26.4C211.56,104.75,223.14,104.33,236.14,104.83Z"/><path class="b9e04b24-7fe1-4d1e-84f2-deb5619b977b" d="M779.59,184a34.46,34.46,0,0,1,3-14c6.5-14.75,13.16-29.44,19.51-44.26,1.66-3.88,4-5.86,8.18-5.89,3.49,0,7-.31,10.48-.45,4-.15,5.2,1.63,3.6,5.28-3.54,8.07-7,16.18-10.69,24.17s-6.86,15.86-9.8,24c-1.39,3.86,0,5.33,3.74,5.36h2c9.76,0,9.87.22,5.88,9.43-4.22,9.71-4.22,9.72-14.87,9.35-3.32-.12-6.67,0-10-.45C782.64,195.54,779.61,192,779.59,184Z"/><path class="b9e04b24-7fe1-4d1e-84f2-deb5619b977b" d="M827.61,102.56c-7.35,0-12-4.25-12-11,0-8.33,5.09-13.33,13.34-13.22,5.63.08,10.93,5.83,11,12A12.17,12.17,0,0,1,827.61,102.56Z"/></svg>