<svg id="Layer_1" data-name="Layer 1" xmlns="http://www.w3.org/2000/svg" viewBox="0 0 32.81 28.83"><path d="M22.15,9.82c-2-1.53-3.87-2.89-5.6-4.43-1.21-1.07-1.75-2.54-.57-4a2.77,2.77,0,0,1,4-.47c4.17,3.8,8.21,7.76,12.09,11.84,1.37,1.44.51,3.12-.79,4.41-3.31,3.27-6.6,6.57-9.94,9.8-1.57,1.52-3.51,2.36-5.27.54s-.32-3.41,1.07-4.66,3.14-2.47,4.72-3.69l-.71-1.75H8.28c-1.67,0-3.33,0-5-.05C1.42,17.31,0,16.56,0,14.46s1.44-2.82,3.33-2.83c5,0,10,0,15-.05C19.22,11.57,20.28,11.91,22.15,9.82Z" fill="#ea7862"/></svg>