<svg id="f7245b91-aafe-4d84-be60-32f97870d655" data-name="Layer 1" xmlns="http://www.w3.org/2000/svg" viewBox="0 0 190.16 201.41"><defs><style>.a7fb5e39-e3fb-4972-9cbe-92d12ec32789{fill:#e6e1d7;}</style></defs><path class="a7fb5e39-e3fb-4972-9cbe-92d12ec32789" d="M180.79,100.89c0,47-38.11,85.16-85.49,85.65S9.36,148,9.37,99.35c0-47,38.89-84.52,87.46-84.48C142.68,14.91,180.8,54,180.79,100.89ZM95.68,27.43c-39.71-.81-73,31.81-73.86,72.32-.82,39.81,31.58,73.1,72.1,74.08,40.22,1,73.74-31.85,74.37-72.83C168.91,61.24,136.36,28.26,95.68,27.43Z"/><path class="a7fb5e39-e3fb-4972-9cbe-92d12ec32789" d="M77,73.75l45.92,45.77c1.66,1.64,3.35,3.25,4.94,5,3.51,3.73,3.87,7.43.7,10-3.47,2.83-6.68,1.88-9.69-1.15Q99.69,114,80.39,94.79C76.64,91,72.94,87.21,69.18,83.38c-1.72,1.5-1,3.08-1,4.43-.07,14.66,0,29.32-.05,44,0,5.3-2,8-6,8.07-4.14.1-6.36-2.7-6.37-8.27q-.08-31.48-.08-63c0-5.14,2.62-7.64,7.69-7.62q30,.14,60,.23c1.5,0,3,0,4.49.09,4.11.31,6.64,2.42,6.35,6.7-.26,4-2.82,5.74-6.76,5.73-11.5,0-23,0-34.49,0Z"/></svg>